<svg width="21" height="23" viewBox="0 0 21 23" fill="none" xmlns="http://www.w3.org/2000/svg">
<path d="M15.2611 7.33331V7.43331H15.3611H20.1222V21.2847C20.1222 21.61 19.993 21.9219 19.763 22.1519C19.533 22.3819 19.2211 22.5111 18.8958 22.5111H2.10416C1.7789 22.5111 1.46696 22.3819 1.23697 22.1519C1.00698 21.9219 0.877771 21.61 0.877771 21.2847V7.43331H4.14999V8.6222H2.16666H2.06666V8.7222V21.2222V21.3222H2.16666H18.8333H18.9333V21.2222V8.7222V8.6222H18.8333H15.3611H15.2611V8.7222V10.1111C15.2611 10.2687 15.1985 10.4199 15.087 10.5314C14.9755 10.6429 14.8243 10.7055 14.6667 10.7055C14.509 10.7055 14.3578 10.6429 14.2463 10.5314C14.1348 10.4199 14.0722 10.2687 14.0722 10.1111V5.2847C14.0722 4.33728 13.6959 3.42867 13.0259 2.75875C12.356 2.08883 11.4474 1.71247 10.5 1.71247C9.55258 1.71247 8.64397 2.08883 7.97405 2.75875C7.30413 3.42867 6.92777 4.33728 6.92777 5.2847V7.33331V7.43331H7.02777H12.4833V8.6222H7.02777H6.92777V8.7222V10.1458C6.92777 10.3035 6.86514 10.4547 6.75366 10.5661C6.64218 10.6776 6.49098 10.7402 6.33333 10.7402C6.17567 10.7402 6.02447 10.6776 5.91299 10.5661C5.80151 10.4547 5.73888 10.3035 5.73888 10.1458V5.2847C5.73888 4.65946 5.86203 4.04034 6.1013 3.4627C6.34057 2.88505 6.69127 2.36019 7.13338 1.91808C7.57549 1.47597 8.10035 1.12527 8.678 0.886002C9.25564 0.646734 9.87476 0.523584 10.5 0.523584C11.1252 0.523584 11.7443 0.646734 12.322 0.886002C12.8996 1.12527 13.4245 1.47597 13.8666 1.91808C14.3087 2.36019 14.6594 2.88505 14.8987 3.4627C15.138 4.04034 15.2611 4.65946 15.2611 5.2847V7.33331Z" fill="white" stroke="white" stroke-width="0.2"/>
</svg>
